HIERARCHY
ROOT Hips
{
  OFFSET 0 0 0
  CHANNELS 6 Xposition Yposition Zposition Zrotation Yrotation Xrotation
  JOINT LeftThigh
  {
    OFFSET 8.409438 0 -5.917753
    CHANNELS 3 Zrotation Yrotation Xrotation
    JOINT LeftLeg
    {
      OFFSET 0 0 -42.358652
      CHANNELS 3 Zrotation Yrotation Xrotation
      JOINT LeftFoot
      {
        OFFSET 0 0 -39.357303
        CHANNELS 3 Zrotation Yrotation Xrotation
      }
    }
  }
  JOINT RightThigh
  {
    OFFSET -8.409438 0 -5.917753
    CHANNELS 3 Zrotation Yrotation Xrotation
    JOINT RightLeg
    {
      OFFSET 0 0 -42.358652
      CHANNELS 3 Zrotation Yrotation Xrotation
      JOINT RightFoot
      {
        OFFSET 0 0 -39.357303
        CHANNELS 3 Zrotation Yrotation Xrotation
      }
    }
  }
  JOINT SpineLow
  {
    OFFSET 0 0 4.719101
    CHANNELS 3 Zrotation Yrotation Xrotation
    JOINT SpineMid
    {
      OFFSET 0 0 12.899191
      CHANNELS 3 Zrotation Yrotation Xrotation
      JOINT Chest
      {
        OFFSET 0 0 12.899191
        CHANNELS 3 Zrotation Yrotation Xrotation
        JOINT LeftShoulder
        {
          OFFSET 7.550562 1.41573 9.438202
          CHANNELS 3 Zrotation Yrotation Xrotation
          JOINT LeftArm
          {
            OFFSET 9.155056 0 4.247191
            CHANNELS 3 Zrotation Yrotation Xrotation
            JOINT LeftForearm
            {
              OFFSET 0 0 25.771955
              CHANNELS 3 Zrotation Yrotation Xrotation
              JOINT LeftHand
              {
                OFFSET 0 0 25.197169
                CHANNELS 3 Zrotation Yrotation Xrotation
              }
            }
          }
        }
        JOINT RightShoulder
        {
          OFFSET -7.550562 1.41573 9.438202
          CHANNELS 3 Zrotation Yrotation Xrotation
          JOINT RightArm
          {
            OFFSET -9.155056 0 4.247191
            CHANNELS 3 Zrotation Yrotation Xrotation
            JOINT RightForearm
            {
              OFFSET 0 0 -25.771955
              CHANNELS 3 Zrotation Yrotation Xrotation
              JOINT RightHand
              {
                OFFSET 0 0 -25.197169
                CHANNELS 3 Zrotation Yrotation Xrotation
              }
            }
          }
        }
        JOINT Neck
        {
          OFFSET 0 0 15.101124
          CHANNELS 3 Zrotation Yrotation Xrotation
          JOINT Head
          {
            OFFSET 0 0 11.325843
            CHANNELS 3 Zrotation Yrotation Xrotation
            End Site
            {
              OFFSET 0 0 14.157303
            }
          }
        }
      }
    }
  }
}
MOTION
Frames: 5
Frame Time: 0.0
0.0  93.25843  0.0  -1.601329  8.456558  -116.667962  11.635816  -9.160018  7.505388  -16.995419  2.643981  13.402226  -1.036831  -0.431431  2.141869  16.152086  -24.770828  -87.516024  25.883579  34.674012  87.253118  1.530427  7.376663  2.115267  1.054143  -2.596377  2.108404  2.661534  -7.181419  5.668891  2.661534  -7.181419  5.668891  -13.768829  30.278194  15.108644  112.204114  44.213846  -162.374564  -36.021704  13.035764  76.40932  77.626606  -18.341551  -19.135118  5.938122  -9.139535  27.908988  71.070873  67.112271  16.64395  -28.682916  -27.667907  -99.020307  48.218858  -2.61258  -23.231187  -7.525311  7.130191  12.471161  -5.785693  5.197786  9.431093  
0.0  93.25843  0.0  -1.749968  8.460607  -118.086146  10.688361  -9.136062  9.025328  -16.588271  2.352773  13.534321  -0.968126  -0.405771  2.189261  17.177951  -25.6803  -89.717275  24.349985  35.708984  81.746211  1.707095  6.807139  1.065  0.926019  -2.71681  2.192111  2.290839  -7.502126  5.90993  2.290839  -7.502126  5.90993  -13.287388  30.977983  15.699612  112.787455  44.422201  -162.058577  -36.489292  13.752362  76.271551  78.168871  -18.305532  -18.911594  5.92067  -8.702911  28.569626  71.63791  67.255181  17.428954  -28.228315  -27.971229  -99.531531  48.013803  -2.537467  -23.155704  -7.383172  7.548232  12.95529  -5.693206  5.508788  9.795642  
0.0  93.25843  0.0  -1.849067  8.275019  -119.287665  9.890332  -9.104863  10.421428  -15.999947  2.01649  13.588355  -0.977806  -0.35451  2.239377  18.060443  -26.774531  -90.984932  21.798356  36.16025  74.052796  2.278875  6.332197  0.330613  0.779359  -2.848375  2.248196  1.870603  -7.849839  6.078721  1.870603  -7.849838  6.078721  -12.565375  31.844634  16.284146  113.402497  44.607059  -161.781165  -37.104426  14.248147  76.075503  78.37468  -18.276082  -18.581407  6.166639  -8.173622  29.354786  72.2154  67.45285  18.173609  -27.870447  -28.301882  -99.981336  47.899949  -2.601768  -23.125556  -7.095701  8.058494  13.503916  -5.495259  5.89171  10.206828  
0.0  93.25843  0.0  -1.777263  7.924869  -120.034439  9.360332  -8.843075  11.335832  -15.629614  1.703775  13.636512  -0.948526  -0.249123  2.236127  19.031049  -27.857428  -91.539794  18.197469  35.50551  64.141801  3.052766  6.002778  -0.195027  0.735948  -2.902384  2.271925  1.743816  -7.99392  6.148424  1.743816  -7.99392  6.148424  -12.231438  32.24335  16.758897  113.96684  44.834344  -161.49901  -37.497275  14.670833  76.019904  78.390311  -18.224721  -18.627321  6.100712  -8.041856  29.881585  72.883821  67.681236  18.936919  -27.596052  -28.463919  -100.126068  47.852694  -2.57645  -23.167958  -7.0055  8.29116  13.999099  -5.439411  6.062912  10.578102  
0.0  93.25843  0.0  -1.580813  7.384094  -120.103907  10.462027  -9.574905  11.986253  -16.513631  2.165895  13.03323  -1.063622  -0.263499  2.124647  20.2896  -28.997483  -91.603092  14.770249  33.441172  53.049087  3.411554  5.601834  -0.35166  0.817872  -2.892181  2.277409  1.968785  -7.973742  6.153612  1.968785  -7.973741  6.153612  -12.553506  32.117077  16.722917  114.391429  45.064136  -161.249281  -37.975923  14.941605  75.852082  78.138008  -18.244705  -18.688585  5.700472  -8.171441  29.85362  73.574803  67.909884  19.613896  -27.234433  -28.687328  -100.296683  48.088231  -2.570016  -23.045695  -7.149366  8.235994  14.207852  -5.548963  6.015918  10.73604  
